<svg id="no_text" data-name="no text" xmlns="http://www.w3.org/2000/svg" viewBox="0 0 600 1294.17"><defs><style>.cls-1,.cls-13,.cls-2,.cls-3,.cls-4{fill:none;stroke-linejoin:round;}.cls-1{stroke:#686868;stroke-width:2px;}.cls-2,.cls-3,.cls-4{stroke:#e2e2e2;stroke-width:1.07px;}.cls-3{stroke-dasharray:11.81 11.81;}.cls-4{stroke-dasharray:12;}.cls-5{fill:#e76151;}.cls-6{fill:#e78051;}.cls-7{fill:#f4a061;}.cls-8{fill:#f4a261;}.cls-9{fill:#e9c46a;}.cls-10{fill:#398076;}.cls-11{fill:#396e76;}.cls-12{fill:#2a608f;}.cls-13{stroke:#000;stroke-width:0.75px;}</style></defs><line class="cls-1" x1="302.75" y1="178.39" x2="302.75" y2="885.2"/><line class="cls-2" x1="96.13" y1="317.9" x2="96.13" y2="323.9"/><line class="cls-3" x1="96.13" y1="335.72" x2="96.13" y2="873.3"/><line class="cls-2" x1="96.13" y1="879.2" x2="96.13" y2="885.2"/><line class="cls-2" x1="199.44" y1="317.9" x2="199.44" y2="323.9"/><line class="cls-3" x1="199.44" y1="335.72" x2="199.44" y2="873.3"/><line class="cls-2" x1="199.44" y1="879.2" x2="199.44" y2="885.2"/><line class="cls-4" x1="406.05" y1="317.9" x2="406.05" y2="885.2"/><line class="cls-4" x1="509.39" y1="318.53" x2="509.39" y2="885.2"/><rect class="cls-5" x="302.06" y="939.8" width="189.06" height="47.46"/><rect class="cls-6" x="302.06" y="887.07" width="74.13" height="47.46"/><rect class="cls-7" x="302.06" y="834.33" width="17.47" height="47.46"/><rect class="cls-8" x="302.06" y="781.6" width="6.79" height="47.46"/><rect class="cls-9" x="302.06" y="728.86" width="4.31" height="47.46"/><rect class="cls-9" x="302.06" y="676.13" width="1.21" height="47.46"/><rect class="cls-10" x="297.51" y="623.38" width="4.55" height="47.46"/><rect class="cls-11" x="296.54" y="570.65" width="5.55" height="47.46"/><rect class="cls-12" x="269.21" y="517.91" width="32.85" height="47.46"/><line class="cls-13" x1="15.9" y1="318.53" x2="584.1" y2="318.53"/><text/></svg>