<svg id="no_text" data-name="no text" xmlns="http://www.w3.org/2000/svg" viewBox="0 0 300 1150.85"><defs><style>.cls-1,.cls-13,.cls-2,.cls-3,.cls-4{fill:none;stroke-linejoin:round;}.cls-1{stroke:#848484;stroke-width:2px;}.cls-2,.cls-3,.cls-4{stroke:#e2e2e2;stroke-width:1.07px;}.cls-3{stroke-dasharray:11.98 11.98;}.cls-4{stroke-dasharray:12;}.cls-5{fill:#e76151;}.cls-6{fill:#e78051;}.cls-7{fill:#f4a061;}.cls-8{fill:#f4a261;}.cls-9{fill:#e9c46a;}.cls-10{fill:#398076;}.cls-11{fill:#396e76;}.cls-12{fill:#2a608f;}.cls-13{stroke:#000;stroke-width:0.75px;}</style></defs><line class="cls-1" x1="151.45" y1="110.41" x2="151.45" y2="771.72"/><line class="cls-2" x1="42.36" y1="220.53" x2="42.36" y2="226.53"/><line class="cls-3" x1="42.36" y1="238.51" x2="42.36" y2="759.73"/><line class="cls-2" x1="42.36" y1="765.72" x2="42.36" y2="771.72"/><line class="cls-2" x1="96.9" y1="220.53" x2="96.9" y2="226.53"/><line class="cls-3" x1="96.9" y1="238.51" x2="96.9" y2="759.73"/><line class="cls-2" x1="96.9" y1="765.72" x2="96.9" y2="771.72"/><line class="cls-4" x1="205.99" y1="220.53" x2="205.99" y2="771.72"/><line class="cls-4" x1="260.56" y1="221.14" x2="260.56" y2="771.72"/><rect class="cls-5" x="151.45" y="738.87" width="99.82" height="34.36"/><rect class="cls-6" x="151.45" y="700.69" width="39.14" height="34.36"/><rect class="cls-7" x="151.45" y="662.5" width="9.22" height="34.36"/><rect class="cls-8" x="151.45" y="624.32" width="3.59" height="34.36"/><rect class="cls-9" x="151.45" y="586.13" width="2.27" height="34.36"/><rect class="cls-9" x="151.45" y="547.95" width="0.64" height="34.36"/><rect class="cls-10" x="149.05" y="509.76" width="2.4" height="34.36"/><rect class="cls-11" x="148.53" y="471.57" width="2.93" height="34.36"/><rect class="cls-12" x="134.11" y="433.39" width="17.34" height="34.36"/><line class="cls-13" y1="221.17" x2="300" y2="221.17"/><text/></svg>