<svg id="Layer_1" data-name="Layer 1" xmlns="http://www.w3.org/2000/svg" viewBox="0 0 1200 789.71"><defs><style>.cls-1,.cls-2,.cls-3,.cls-4,.cls-5,.cls-6,.cls-7,.cls-8,.cls-9{fill:none;}.cls-1{stroke:#4c4c4c;}.cls-1,.cls-2,.cls-3,.cls-4,.cls-5,.cls-7{stroke-linejoin:round;}.cls-1,.cls-4{stroke-width:0.75px;}.cls-2,.cls-3{stroke:#b5b5b5;stroke-width:0.5px;}.cls-3{stroke-dasharray:12.16 12.16;}.cls-4{stroke:#000;}.cls-5,.cls-6{stroke:#f4a061;}.cls-5,.cls-6,.cls-7,.cls-8{stroke-width:3px;}.cls-6,.cls-8,.cls-9{stroke-miterlimit:10;}.cls-7,.cls-8{stroke:#2a608f;}.cls-9{stroke:#6b6a6a;}.cls-10{fill:#6b6a6a;}.cls-11{fill:#fff;}</style></defs><line class="cls-1" x1="119.61" y1="709.35" x2="892.07" y2="709.35"/><line class="cls-2" x1="134.37" y1="545.94" x2="140.37" y2="545.94"/><line class="cls-3" x1="152.53" y1="545.94" x2="851.59" y2="545.94"/><line class="cls-2" x1="857.67" y1="545.94" x2="863.67" y2="545.94"/><line class="cls-2" x1="134.37" y1="405.11" x2="140.37" y2="405.11"/><line class="cls-3" x1="152.53" y1="405.11" x2="851.59" y2="405.11"/><line class="cls-2" x1="857.67" y1="405.11" x2="863.67" y2="405.11"/><line class="cls-2" x1="134.37" y1="264.28" x2="140.37" y2="264.28"/><line class="cls-3" x1="152.53" y1="264.28" x2="851.59" y2="264.28"/><line class="cls-2" x1="857.67" y1="264.28" x2="863.67" y2="264.28"/><line class="cls-2" x1="134.37" y1="123.44" x2="140.37" y2="123.44"/><line class="cls-3" x1="152.53" y1="123.44" x2="851.59" y2="123.44"/><line class="cls-2" x1="857.67" y1="123.44" x2="863.67" y2="123.44"/><line class="cls-1" x1="134.37" y1="718.41" x2="134.37" y2="95.28"/><line class="cls-4" x1="210.37" y1="718.41" x2="210.37" y2="709.35"/><line class="cls-4" x1="286.33" y1="718.41" x2="286.33" y2="709.35"/><line class="cls-4" x1="362.29" y1="718.41" x2="362.29" y2="709.35"/><line class="cls-4" x1="438.25" y1="718.41" x2="438.25" y2="709.35"/><line class="cls-4" x1="514.21" y1="718.41" x2="514.21" y2="709.35"/><line class="cls-4" x1="590.21" y1="718.41" x2="590.21" y2="709.35"/><line class="cls-4" x1="666.17" y1="718.41" x2="666.17" y2="709.35"/><line class="cls-4" x1="742.13" y1="718.41" x2="742.13" y2="709.35"/><line class="cls-4" x1="818.09" y1="718.41" x2="818.09" y2="709.35"/><polyline class="cls-5" points="134.37 422.05 210.37 422.05 210.37 399.28 286.33 399.28 286.33 399.75 362.29 399.75 362.29 352.9 438.25 352.9 438.25 317.74 514.21 317.74 514.21 267.87 590.21 267.87 590.21 225.09 666.17 225.09 666.17 185.91 742.13 185.91 742.13 177.57 818.09 177.57 818.09 194.61"/><line class="cls-6" x1="817.75" y1="193.02" x2="863.67" y2="193.02"/><polyline class="cls-7" points="134.37 479.71 210.37 479.71 210.37 481.8 286.33 481.8 286.33 478.74 362.29 478.74 362.29 449.06 438.25 449.06 438.25 444.38 514.21 444.38 514.21 432.67 590.21 432.67 590.21 443.23 666.17 443.23 666.17 424.4 742.13 424.4 742.13 408.36 818.09 408.36 818.09 414.72"/><line class="cls-8" x1="816.94" y1="413.23" x2="864.05" y2="413.23"/><line class="cls-9" x1="154.17" y1="152.79" x2="154.17" y2="394.28"/><path class="cls-10" d="M149.37,387.45a.5.5,0,0,1,.69.15l4.11,6.45,4.11-6.45a.5.5,0,0,1,.84.54l-4.53,7.11a.5.5,0,0,1-.84,0l-4.53-7.11a.47.47,0,0,1-.08-.27A.48.48,0,0,1,149.37,387.45Z"/><line class="cls-9" x1="840.71" y1="195.58" x2="840.71" y2="411.12"/><rect class="cls-10" x="837.46" y="195.08" width="6.5" height="1"/><rect class="cls-10" x="837.46" y="410.62" width="6.5" height="1"/><rect class="cls-11" x="798.36" y="273.48" width="84.69" height="59.74"/></svg>