<svg id="Layer_1" data-name="Layer 1" xmlns="http://www.w3.org/2000/svg" viewBox="0 0 600 1021.94"><defs><style>.cls-1,.cls-2,.cls-3,.cls-4,.cls-5,.cls-6,.cls-7,.cls-8,.cls-9{fill:none;}.cls-1{stroke:#4c4c4c;}.cls-1,.cls-2,.cls-3,.cls-4,.cls-5,.cls-7{stroke-linejoin:round;}.cls-1,.cls-4{stroke-width:0.75px;}.cls-2,.cls-3{stroke:#b5b5b5;stroke-width:0.5px;}.cls-3{stroke-dasharray:12.19 12.19;}.cls-4{stroke:#000;}.cls-5,.cls-6{stroke:#f4a061;}.cls-5,.cls-6,.cls-7,.cls-8{stroke-width:3px;}.cls-6,.cls-8,.cls-9{stroke-miterlimit:10;}.cls-7,.cls-8{stroke:#2a608f;}.cls-9{stroke:#6b6a6a;}.cls-10{fill:#6b6a6a;}.cls-11{fill:#fff;}</style></defs><line class="cls-1" x1="40.43" y1="905.47" x2="582.5" y2="905.47"/><line class="cls-2" x1="50.79" y1="723.93" x2="56.79" y2="723.93"/><line class="cls-3" x1="68.98" y1="723.93" x2="550.47" y2="723.93"/><line class="cls-2" x1="556.57" y1="723.93" x2="562.57" y2="723.93"/><line class="cls-2" x1="50.79" y1="567.47" x2="56.79" y2="567.47"/><line class="cls-3" x1="68.98" y1="567.47" x2="550.47" y2="567.47"/><line class="cls-2" x1="556.57" y1="567.47" x2="562.57" y2="567.47"/><line class="cls-2" x1="50.79" y1="411.01" x2="56.79" y2="411.01"/><line class="cls-3" x1="68.98" y1="411.01" x2="550.47" y2="411.01"/><line class="cls-2" x1="556.57" y1="411.01" x2="562.57" y2="411.01"/><line class="cls-2" x1="50.79" y1="254.55" x2="56.79" y2="254.55"/><line class="cls-3" x1="68.98" y1="254.55" x2="550.47" y2="254.55"/><line class="cls-2" x1="556.57" y1="254.55" x2="562.57" y2="254.55"/><line class="cls-1" x1="50.79" y1="915.54" x2="50.79" y2="223.26"/><line class="cls-4" x1="104.12" y1="915.54" x2="104.12" y2="905.47"/><line class="cls-4" x1="157.42" y1="915.54" x2="157.42" y2="905.47"/><line class="cls-4" x1="210.73" y1="915.54" x2="210.73" y2="905.47"/><line class="cls-4" x1="264.03" y1="915.54" x2="264.03" y2="905.47"/><line class="cls-4" x1="317.34" y1="915.54" x2="317.34" y2="905.47"/><line class="cls-4" x1="370.67" y1="915.54" x2="370.67" y2="905.47"/><line class="cls-4" x1="423.97" y1="915.54" x2="423.97" y2="905.47"/><line class="cls-4" x1="477.28" y1="915.54" x2="477.28" y2="905.47"/><line class="cls-4" x1="530.58" y1="915.54" x2="530.58" y2="905.47"/><polyline class="cls-5" points="50.79 586.29 104.12 586.29 104.12 561 157.42 561 157.42 561.52 210.73 561.52 210.73 509.46 264.03 509.46 264.03 470.41 317.34 470.41 317.34 415 370.67 415 370.67 367.47 423.98 367.47 423.98 323.94 477.28 323.94 477.28 314.68 530.59 314.68 530.59 333.62"/><line class="cls-6" x1="530.34" y1="331.85" x2="562.57" y2="331.85"/><polyline class="cls-7" points="50.79 650.35 104.12 650.35 104.12 652.67 157.42 652.67 157.42 649.27 210.73 649.27 210.73 616.3 264.03 616.3 264.03 611.09 317.34 611.09 317.34 598.09 370.67 598.09 370.67 609.83 423.98 609.83 423.98 588.9 477.28 588.9 477.28 571.08 530.59 571.08 530.59 578.14"/><line class="cls-8" x1="529.78" y1="576.49" x2="562.84" y2="576.49"/><line class="cls-9" x1="64.68" y1="176.73" x2="64.68" y2="555.57"/><path class="cls-10" d="M59.88,548.74a.5.5,0,0,1,.69.15l4.11,6.46,4.11-6.46a.5.5,0,1,1,.84.54l-4.53,7.12a.5.5,0,0,1-.84,0l-4.53-7.12a.45.45,0,0,1-.08-.27A.51.51,0,0,1,59.88,548.74Z"/><line class="cls-9" x1="546.46" y1="334.63" x2="546.46" y2="574.21"/><rect class="cls-10" x="543.21" y="334.13" width="6.5" height="1"/><rect class="cls-10" x="543.21" y="573.71" width="6.5" height="1"/><rect class="cls-11" x="516.74" y="421.23" width="59.43" height="66.37"/></svg>