<svg id="Layer_1" data-name="Layer 1" xmlns="http://www.w3.org/2000/svg" viewBox="0 0 300 1200.47"><defs><style>.cls-1,.cls-12,.cls-2,.cls-3,.cls-4,.cls-5,.cls-6,.cls-7,.cls-8,.cls-9{fill:none;}.cls-1{stroke:#4c4c4c;}.cls-1,.cls-2,.cls-3,.cls-4,.cls-5,.cls-7{stroke-linejoin:round;}.cls-1,.cls-4{stroke-width:0.75px;}.cls-2,.cls-3{stroke:#b5b5b5;stroke-width:0.5px;}.cls-3{stroke-dasharray:11.67 11.67;}.cls-4{stroke:#000;}.cls-5,.cls-6{stroke:#f4a061;}.cls-5,.cls-6,.cls-7,.cls-8{stroke-width:3px;}.cls-12,.cls-6,.cls-8,.cls-9{stroke-miterlimit:10;}.cls-7,.cls-8{stroke:#2a608f;}.cls-9{stroke:#6b6a6a;}.cls-10{fill:#6b6a6a;}.cls-11{fill:#fff;}.cls-12{stroke:#696969;}.cls-13{fill:#696969;}</style></defs><line class="cls-1" x1="39.1" y1="973.02" x2="286.66" y2="973.02"/><line class="cls-2" x1="43.83" y1="813.22" x2="49.83" y2="813.22"/><line class="cls-3" x1="61.5" y1="813.22" x2="265.73" y2="813.22"/><line class="cls-2" x1="271.56" y1="813.22" x2="277.56" y2="813.22"/><line class="cls-2" x1="43.83" y1="675.5" x2="49.83" y2="675.5"/><line class="cls-3" x1="61.5" y1="675.5" x2="265.73" y2="675.5"/><line class="cls-2" x1="271.56" y1="675.5" x2="277.56" y2="675.5"/><line class="cls-2" x1="43.83" y1="537.78" x2="49.83" y2="537.78"/><line class="cls-3" x1="61.5" y1="537.78" x2="265.73" y2="537.78"/><line class="cls-2" x1="271.56" y1="537.78" x2="277.56" y2="537.78"/><line class="cls-2" x1="43.83" y1="400.06" x2="49.83" y2="400.06"/><line class="cls-3" x1="61.5" y1="400.06" x2="265.73" y2="400.06"/><line class="cls-2" x1="271.56" y1="400.06" x2="277.56" y2="400.06"/><line class="cls-1" x1="43.83" y1="981.88" x2="43.83" y2="372.52"/><line class="cls-4" x1="68.19" y1="981.88" x2="68.19" y2="973.02"/><line class="cls-4" x1="92.53" y1="981.88" x2="92.53" y2="973.02"/><line class="cls-4" x1="116.88" y1="981.88" x2="116.88" y2="973.02"/><line class="cls-4" x1="141.22" y1="981.88" x2="141.22" y2="973.02"/><line class="cls-4" x1="165.57" y1="981.88" x2="165.57" y2="973.02"/><line class="cls-4" x1="189.92" y1="981.88" x2="189.92" y2="973.02"/><line class="cls-4" x1="214.27" y1="981.88" x2="214.27" y2="973.02"/><line class="cls-4" x1="238.61" y1="981.88" x2="238.61" y2="973.02"/><line class="cls-4" x1="262.95" y1="981.88" x2="262.95" y2="973.02"/><polyline class="cls-5" points="43.83 692.07 68.19 692.07 68.19 669.8 92.53 669.8 92.53 670.26 116.88 670.26 116.88 624.45 141.22 624.45 141.22 590.07 165.57 590.07 165.57 541.29 189.92 541.29 189.92 499.46 214.27 499.46 214.27 461.15 238.61 461.15 238.61 452.99 262.95 452.99 262.95 469.66"/><line class="cls-6" x1="262.84" y1="468.1" x2="277.56" y2="468.1"/><polyline class="cls-7" points="43.83 748.45 68.19 748.45 68.19 750.5 92.53 750.5 92.53 747.51 116.88 747.51 116.88 718.48 141.22 718.48 141.22 713.9 165.57 713.9 165.57 702.46 189.92 702.46 189.92 712.78 214.27 712.78 214.27 694.37 238.61 694.37 238.61 678.68 262.95 678.68 262.95 684.9"/><line class="cls-8" x1="262.59" y1="683.44" x2="277.68" y2="683.44"/><line class="cls-9" x1="270.2" y1="470.61" x2="270.2" y2="681.37"/><rect class="cls-10" x="266.95" y="470.11" width="6.5" height="1"/><rect class="cls-10" x="266.95" y="680.87" width="6.5" height="1"/><rect class="cls-11" x="256.63" y="546.78" width="27.14" height="58.42"/><line class="cls-12" x1="55.84" y1="783.38" x2="55.84" y2="755.42"/><path class="cls-13" d="M60.64,762.26a.5.5,0,0,1-.69-.16l-4.11-6.45-4.11,6.45a.5.5,0,1,1-.84-.53l4.53-7.12a.5.5,0,0,1,.84,0l4.53,7.12a.42.42,0,0,1,.08.26A.51.51,0,0,1,60.64,762.26Z"/><line class="cls-12" x1="53.17" y1="649.37" x2="53.17" y2="677.33"/><path class="cls-13" d="M48.37,670.5a.5.5,0,0,1,.69.15l4.11,6.45,4.1-6.45a.5.5,0,0,1,.85.54l-4.53,7.11a.48.48,0,0,1-.42.23.49.49,0,0,1-.43-.23l-4.53-7.11a.56.56,0,0,1-.08-.27A.49.49,0,0,1,48.37,670.5Z"/></svg>