<svg id="Layer_1" data-name="Layer 1" xmlns="http://www.w3.org/2000/svg" viewBox="0 0 1200 1153.08"><defs><style>.cls-1,.cls-13,.cls-3,.cls-4{fill:none;}.cls-1{stroke:#e76151;stroke-miterlimit:10;}.cls-2{fill:#e76151;}.cls-3,.cls-4{stroke:#bfbfbf;}.cls-13,.cls-3,.cls-4{stroke-linejoin:round;stroke-width:1.07px;}.cls-4{stroke-dasharray:11.88 11.88;}.cls-5{fill:#ceaa61;}.cls-6{fill:#c68254;}.cls-7{fill:#267a6c;}.cls-8{fill:#e9c46a;}.cls-9{fill:#f4a261;}.cls-10{fill:#264653;}.cls-11{fill:#1c373f;}.cls-12{fill:#2a9d8f;}.cls-13{stroke:#878787;}</style></defs><line class="cls-1" x1="555.02" y1="223.54" x2="1009.96" y2="223.54"/><rect class="cls-2" x="1009.31" y="219.32" width="1.3" height="8.45"/><line class="cls-1" x1="525.97" y1="427.75" x2="933.47" y2="427.75"/><rect class="cls-2" x="932.82" y="423.52" width="1.3" height="8.45"/><line class="cls-1" x1="680.64" y1="538.01" x2="1116.58" y2="538.01"/><rect class="cls-2" x="1115.93" y="533.79" width="1.3" height="8.45"/><line class="cls-1" x1="559.68" y1="758.51" x2="1132.45" y2="758.51"/><rect class="cls-2" x="1131.8" y="754.28" width="1.3" height="8.45"/><line class="cls-1" x1="252.88" y1="979.02" x2="837.51" y2="979.02"/><rect class="cls-2" x="836.85" y="974.8" width="1.3" height="8.45"/><line class="cls-1" x1="438.9" y1="1089.27" x2="1023.53" y2="1089.27"/><rect class="cls-2" x="1022.88" y="1085.04" width="1.3" height="8.45"/><line class="cls-1" x1="708.77" y1="648.26" x2="1069.21" y2="648.26"/><rect class="cls-2" x="1068.56" y="644.04" width="1.3" height="8.45"/><line class="cls-3" x1="476.1" y1="1119.54" x2="476.1" y2="1113.54"/><line class="cls-4" x1="476.1" y1="1101.66" x2="476.1" y2="85.99"/><line class="cls-3" x1="476.1" y1="80.05" x2="476.1" y2="74.05"/><line class="cls-3" x1="829.83" y1="1119.54" x2="829.83" y2="1113.54"/><line class="cls-4" x1="829.83" y1="1101.66" x2="829.83" y2="85.99"/><line class="cls-3" x1="829.83" y1="80.05" x2="829.83" y2="74.05"/><line class="cls-3" x1="1183.56" y1="1119.54" x2="1183.56" y2="1113.54"/><line class="cls-4" x1="1183.56" y1="1101.66" x2="1183.56" y2="85.99"/><line class="cls-3" x1="1183.56" y1="80.05" x2="1183.56" y2="74.05"/><rect class="cls-5" x="443.65" y="162.66" width="214.23" height="37.8"/><rect class="cls-6" x="657.88" y="162.66" width="352.73" height="37.8"/><rect class="cls-7" x="177.75" y="162.66" width="265.89" height="37.8"/><rect class="cls-8" x="248.5" y="204.64" width="122.71" height="37.8"/><rect class="cls-9" x="371.29" y="204.64" width="183.73" height="37.8"/><rect class="cls-10" x="122.11" y="204.64" width="22.38" height="37.8"/><rect class="cls-11" x="122.11" y="162.66" width="55.65" height="37.8"/><rect class="cls-12" x="144.49" y="204.64" width="104.01" height="37.8"/><rect class="cls-11" x="122.11" y="366.87" width="40.24" height="37.8"/><rect class="cls-5" x="361.02" y="366.87" width="271.64" height="37.8"/><rect class="cls-6" x="632.58" y="366.87" width="302.38" height="37.8"/><rect class="cls-7" x="162.35" y="366.87" width="198.67" height="37.8"/><rect class="cls-8" x="332.66" y="739.61" width="193.31" height="37.8"/><rect class="cls-9" x="525.97" y="739.61" width="243.51" height="37.8"/><rect class="cls-10" x="122.11" y="739.61" width="37.25" height="37.8"/><rect class="cls-12" x="159.36" y="739.61" width="173.3" height="37.8"/><rect class="cls-5" x="469.25" y="477.12" width="316.4" height="37.8"/><rect class="cls-6" x="785.65" y="477.12" width="332.42" height="37.8"/><rect class="cls-11" x="122.11" y="477.12" width="59.71" height="37.8"/><rect class="cls-7" x="181.82" y="477.12" width="287.43" height="37.8"/><rect class="cls-8" x="262.53" y="519.12" width="198.14" height="37.8"/><rect class="cls-9" x="460.66" y="519.12" width="220.82" height="37.8"/><rect class="cls-10" x="122.11" y="519.12" width="24.22" height="37.8"/><rect class="cls-12" x="146.33" y="519.12" width="116.2" height="37.8"/><rect class="cls-5" x="591.81" y="587.38" width="175.83" height="37.8"/><rect class="cls-6" x="767.64" y="587.38" width="303.07" height="37.8"/><rect class="cls-11" x="122.11" y="587.38" width="50.51" height="37.8"/><rect class="cls-7" x="172.7" y="587.38" width="419.11" height="37.8"/><rect class="cls-8" x="398.96" y="629.36" width="114.59" height="37.8"/><rect class="cls-9" x="513.55" y="629.36" width="196.07" height="37.8"/><rect class="cls-10" x="122.11" y="629.36" width="25.29" height="37.8"/><rect class="cls-12" x="147.4" y="629.36" width="251.56" height="37.8"/><rect class="cls-5" x="520.98" y="697.63" width="267.43" height="37.8"/><rect class="cls-6" x="788.41" y="697.63" width="345.53" height="37.8"/><rect class="cls-11" x="122.11" y="697.63" width="88.99" height="37.8"/><rect class="cls-7" x="211.1" y="697.63" width="309.89" height="37.8"/><rect class="cls-8" x="241.14" y="408.85" width="149.23" height="37.8"/><rect class="cls-9" x="390.38" y="408.85" width="176.83" height="37.8"/><rect class="cls-10" x="122.11" y="408.85" width="17.71" height="37.8"/><rect class="cls-12" x="139.89" y="408.85" width="101.33" height="37.8"/><line class="cls-1" x1="122.11" y1="868.76" x2="862.26" y2="868.76"/><rect class="cls-2" x="861.61" y="864.53" width="1.3" height="8.45"/><rect class="cls-5" x="380.03" y="807.88" width="230.33" height="37.8"/><rect class="cls-6" x="610.36" y="807.88" width="252.56" height="37.8"/><rect class="cls-11" x="122.11" y="807.88" width="46.53" height="37.8"/><rect class="cls-7" x="168.63" y="807.88" width="211.32" height="37.8"/><rect class="cls-8" x="265.59" y="849.86" width="176.21" height="37.8"/><rect class="cls-9" x="441.81" y="849.86" width="176.06" height="37.8"/><rect class="cls-10" x="122.11" y="849.86" width="29.66" height="37.8"/><rect class="cls-12" x="151.77" y="849.86" width="113.9" height="37.8"/><rect class="cls-5" x="343.01" y="918.12" width="233.7" height="37.8"/><rect class="cls-6" x="576.71" y="918.12" width="262.29" height="37.8"/><rect class="cls-11" x="122.11" y="918.12" width="42" height="37.8"/><rect class="cls-7" x="164.11" y="918.12" width="178.9" height="37.8"/><rect class="cls-8" x="269.43" y="960.12" width="167.78" height="37.8"/><rect class="cls-9" x="437.21" y="960.12" width="197.06" height="37.8"/><rect class="cls-10" x="122.11" y="960.12" width="16.4" height="37.8"/><rect class="cls-12" x="138.51" y="960.12" width="130.99" height="37.8"/><rect class="cls-5" x="411.3" y="1028.39" width="251.64" height="37.8"/><rect class="cls-6" x="662.94" y="1028.39" width="362.09" height="37.8"/><rect class="cls-11" x="122.11" y="1028.39" width="58.18" height="37.8"/><rect class="cls-7" x="180.28" y="1028.39" width="231.02" height="37.8"/><rect class="cls-8" x="307.67" y="1070.37" width="210.17" height="37.8"/><rect class="cls-9" x="517.84" y="1070.37" width="253.63" height="37.8"/><rect class="cls-10" x="122.11" y="1070.37" width="30.28" height="37.8"/><rect class="cls-12" x="152.38" y="1070.37" width="155.29" height="37.8"/><line class="cls-13" x1="122.41" y1="78.16" x2="1183.56" y2="78.16"/><line class="cls-13" x1="122.37" y1="78.91" x2="122.37" y2="74.05"/><line class="cls-13" x1="193.11" y1="78.91" x2="193.11" y2="74.05"/><line class="cls-13" x1="263.86" y1="78.91" x2="263.86" y2="74.05"/><line class="cls-13" x1="334.61" y1="78.91" x2="334.61" y2="74.05"/><line class="cls-13" x1="405.35" y1="78.91" x2="405.35" y2="74.05"/><line class="cls-13" x1="546.84" y1="78.91" x2="546.84" y2="74.05"/><line class="cls-13" x1="617.59" y1="78.91" x2="617.59" y2="74.05"/><line class="cls-13" x1="688.34" y1="78.91" x2="688.34" y2="74.05"/><line class="cls-13" x1="759.08" y1="78.91" x2="759.08" y2="74.05"/><line class="cls-13" x1="900.58" y1="78.91" x2="900.58" y2="74.05"/><line class="cls-13" x1="971.32" y1="78.91" x2="971.32" y2="74.05"/><line class="cls-13" x1="1042.07" y1="78.91" x2="1042.07" y2="74.05"/><line class="cls-13" x1="1112.81" y1="78.91" x2="1112.81" y2="74.05"/><line class="cls-13" x1="122.41" y1="1119.54" x2="122.41" y2="78.16"/></svg>