<svg id="Layer_1" data-name="Layer 1" xmlns="http://www.w3.org/2000/svg" viewBox="0 0 600 1193.19"><defs><style>.cls-1,.cls-13,.cls-14,.cls-3,.cls-4{fill:none;}.cls-1{stroke:#e76151;}.cls-1,.cls-14{stroke-miterlimit:10;}.cls-2{fill:#e76151;}.cls-3,.cls-4{stroke:#bfbfbf;}.cls-13,.cls-3,.cls-4{stroke-linejoin:round;stroke-width:1.07px;}.cls-4{stroke-dasharray:11.87 11.87;}.cls-5{fill:#ceaa61;}.cls-6{fill:#c68254;}.cls-7{fill:#267a6c;}.cls-8{fill:#e9c46a;}.cls-9{fill:#f4a261;}.cls-10{fill:#264653;}.cls-11{fill:#1c373f;}.cls-12{fill:#2a9d8f;}.cls-13{stroke:#878787;}.cls-14{stroke:#bac8ce;}.cls-15{fill:#bac8ce;}</style></defs><line class="cls-1" x1="290.04" y1="251.37" x2="504.55" y2="251.37"/><rect class="cls-2" x="503.9" y="247.14" width="1.3" height="8.45"/><line class="cls-1" x1="276.32" y1="444.57" x2="468.42" y2="444.57"/><rect class="cls-2" x="467.77" y="440.35" width="1.3" height="8.45"/><line class="cls-1" x1="349.37" y1="554.84" x2="554.9" y2="554.84"/><rect class="cls-2" x="554.25" y="550.62" width="1.3" height="8.45"/><line class="cls-1" x1="292.24" y1="775.34" x2="562.39" y2="775.34"/><rect class="cls-2" x="561.74" y="771.11" width="1.3" height="8.45"/><line class="cls-1" x1="147.36" y1="995.85" x2="423.1" y2="995.85"/><rect class="cls-2" x="422.45" y="991.62" width="1.3" height="8.45"/><line class="cls-1" x1="235.21" y1="1106.1" x2="510.95" y2="1106.1"/><rect class="cls-2" x="510.3" y="1101.87" width="1.3" height="8.45"/><line class="cls-1" x1="362.65" y1="665.09" x2="532.53" y2="665.09"/><rect class="cls-2" x="531.88" y="660.86" width="1.3" height="8.45"/><line class="cls-3" x1="252.77" y1="1139.23" x2="252.77" y2="1133.23"/><line class="cls-4" x1="252.77" y1="1121.36" x2="252.77" y2="82.81"/><line class="cls-3" x1="252.77" y1="76.88" x2="252.77" y2="70.88"/><line class="cls-3" x1="419.82" y1="1139.23" x2="419.82" y2="1133.23"/><line class="cls-4" x1="419.82" y1="1121.36" x2="419.82" y2="82.81"/><line class="cls-3" x1="419.82" y1="76.88" x2="419.82" y2="70.88"/><line class="cls-3" x1="586.87" y1="1139.23" x2="586.87" y2="1133.23"/><line class="cls-4" x1="586.87" y1="1121.36" x2="586.87" y2="82.81"/><line class="cls-3" x1="586.87" y1="76.88" x2="586.87" y2="70.88"/><rect class="cls-5" x="237.45" y="190.49" width="101.17" height="37.8"/><rect class="cls-6" x="338.62" y="190.49" width="166.58" height="37.8"/><rect class="cls-7" x="111.88" y="190.49" width="125.57" height="37.8"/><rect class="cls-8" x="145.29" y="232.47" width="57.95" height="37.8"/><rect class="cls-9" x="203.28" y="232.47" width="86.76" height="37.8"/><rect class="cls-10" x="85.6" y="232.47" width="10.57" height="37.8"/><rect class="cls-11" x="85.6" y="190.49" width="26.28" height="37.8"/><rect class="cls-12" x="96.17" y="232.47" width="49.12" height="37.8"/><rect class="cls-11" x="85.6" y="383.7" width="19" height="37.8"/><rect class="cls-5" x="198.43" y="383.7" width="128.28" height="37.8"/><rect class="cls-6" x="326.67" y="383.7" width="142.8" height="37.8"/><rect class="cls-7" x="104.6" y="383.7" width="93.82" height="37.8"/><rect class="cls-8" x="185.03" y="756.44" width="91.29" height="37.8"/><rect class="cls-9" x="276.32" y="756.44" width="115" height="37.8"/><rect class="cls-10" x="85.6" y="756.44" width="17.59" height="37.8"/><rect class="cls-12" x="103.19" y="756.44" width="81.84" height="37.8"/><rect class="cls-5" x="249.54" y="493.94" width="149.42" height="37.8"/><rect class="cls-6" x="398.96" y="493.94" width="156.99" height="37.8"/><rect class="cls-11" x="85.6" y="493.94" width="28.2" height="37.8"/><rect class="cls-7" x="113.8" y="493.94" width="135.74" height="37.8"/><rect class="cls-8" x="151.91" y="535.94" width="93.57" height="37.8"/><rect class="cls-9" x="245.48" y="535.94" width="104.28" height="37.8"/><rect class="cls-10" x="85.6" y="535.94" width="11.44" height="37.8"/><rect class="cls-12" x="97.04" y="535.94" width="54.88" height="37.8"/><rect class="cls-5" x="307.42" y="604.21" width="83.04" height="37.8"/><rect class="cls-6" x="390.45" y="604.21" width="143.12" height="37.8"/><rect class="cls-11" x="85.6" y="604.21" width="23.85" height="37.8"/><rect class="cls-7" x="109.49" y="604.21" width="197.93" height="37.8"/><rect class="cls-8" x="216.34" y="646.19" width="54.11" height="37.8"/><rect class="cls-9" x="270.46" y="646.19" width="92.59" height="37.8"/><rect class="cls-10" x="85.6" y="646.19" width="11.95" height="37.8"/><rect class="cls-12" x="97.54" y="646.19" width="118.8" height="37.8"/><rect class="cls-5" x="273.97" y="714.46" width="126.29" height="37.8"/><rect class="cls-6" x="400.26" y="714.46" width="163.18" height="37.8"/><rect class="cls-11" x="85.6" y="714.46" width="42.03" height="37.8"/><rect class="cls-7" x="127.62" y="714.46" width="146.35" height="37.8"/><rect class="cls-8" x="141.81" y="425.68" width="70.48" height="37.8"/><rect class="cls-9" x="212.29" y="425.68" width="83.51" height="37.8"/><rect class="cls-10" x="85.6" y="425.68" width="8.36" height="37.8"/><rect class="cls-12" x="94" y="425.68" width="47.85" height="37.8"/><line class="cls-1" x1="85.6" y1="885.58" x2="434.8" y2="885.58"/><rect class="cls-2" x="434.15" y="881.36" width="1.3" height="8.45"/><rect class="cls-5" x="207.4" y="824.7" width="108.77" height="37.8"/><rect class="cls-6" x="316.18" y="824.7" width="119.27" height="37.8"/><rect class="cls-11" x="85.6" y="824.7" width="21.97" height="37.8"/><rect class="cls-7" x="107.57" y="824.7" width="99.8" height="37.8"/><rect class="cls-8" x="153.36" y="866.69" width="83.22" height="37.8"/><rect class="cls-9" x="236.58" y="866.69" width="83.15" height="37.8"/><rect class="cls-10" x="85.6" y="866.69" width="14.01" height="37.8"/><rect class="cls-12" x="99.61" y="866.69" width="53.79" height="37.8"/><rect class="cls-5" x="189.92" y="934.95" width="110.37" height="37.8"/><rect class="cls-6" x="300.29" y="934.95" width="123.87" height="37.8"/><rect class="cls-11" x="85.6" y="934.95" width="19.84" height="37.8"/><rect class="cls-7" x="105.44" y="934.95" width="84.48" height="37.8"/><rect class="cls-8" x="155.17" y="976.95" width="79.24" height="37.8"/><rect class="cls-9" x="234.41" y="976.95" width="93.06" height="37.8"/><rect class="cls-10" x="85.6" y="976.95" width="7.75" height="37.8"/><rect class="cls-12" x="93.35" y="976.95" width="61.86" height="37.8"/><rect class="cls-5" x="222.17" y="1045.22" width="118.84" height="37.8"/><rect class="cls-6" x="341.01" y="1045.22" width="171" height="37.8"/><rect class="cls-11" x="85.6" y="1045.22" width="27.47" height="37.8"/><rect class="cls-7" x="113.07" y="1045.22" width="109.1" height="37.8"/><rect class="cls-8" x="173.23" y="1087.2" width="99.25" height="37.8"/><rect class="cls-9" x="272.49" y="1087.2" width="119.78" height="37.8"/><rect class="cls-10" x="85.6" y="1087.2" width="14.3" height="37.8"/><rect class="cls-12" x="99.9" y="1087.2" width="73.34" height="37.8"/><line class="cls-13" x1="85.74" y1="74.98" x2="586.87" y2="74.98"/><line class="cls-13" x1="85.72" y1="75.74" x2="85.72" y2="70.88"/><line class="cls-13" x1="119.13" y1="75.74" x2="119.13" y2="70.88"/><line class="cls-13" x1="152.54" y1="75.74" x2="152.54" y2="70.88"/><line class="cls-13" x1="185.95" y1="75.74" x2="185.95" y2="70.88"/><line class="cls-13" x1="219.36" y1="75.74" x2="219.36" y2="70.88"/><line class="cls-13" x1="286.18" y1="75.74" x2="286.18" y2="70.88"/><line class="cls-13" x1="319.59" y1="75.74" x2="319.59" y2="70.88"/><line class="cls-13" x1="353" y1="75.74" x2="353" y2="70.88"/><line class="cls-13" x1="386.41" y1="75.74" x2="386.41" y2="70.88"/><line class="cls-13" x1="453.23" y1="75.74" x2="453.23" y2="70.88"/><line class="cls-13" x1="486.64" y1="75.74" x2="486.64" y2="70.88"/><line class="cls-13" x1="520.05" y1="75.74" x2="520.05" y2="70.88"/><line class="cls-13" x1="553.46" y1="75.74" x2="553.46" y2="70.88"/><line class="cls-13" x1="85.74" y1="1139.23" x2="85.74" y2="75.07"/><path class="cls-14" d="M89.8,248.27c-1.91-10.16-7.4-48,16.73-80a92.5,92.5,0,0,1,29.35-25.22"/><path class="cls-15" d="M93.35,240.7a.51.51,0,0,0-.66.27L89.77,248l-5.17-5.63a.5.5,0,0,0-.71,0,.51.51,0,0,0,0,.71l5.71,6.22a.5.5,0,0,0,.45.15.51.51,0,0,0,.38-.3l3.22-7.8a.53.53,0,0,0,0-.28A.51.51,0,0,0,93.35,240.7Z"/><path class="cls-14" d="M106.3,201.12l31.05-54.9"/><path class="cls-15" d="M113.84,197.54a.5.5,0,0,0-.68-.21l-6.75,3.59-.4-7.64a.5.5,0,0,0-.53-.47.51.51,0,0,0-.47.53l.44,8.42a.5.5,0,0,0,.26.41.51.51,0,0,0,.48,0l7.44-4a.41.41,0,0,0,.2-.19A.51.51,0,0,0,113.84,197.54Z"/></svg>