<svg id="no_text" data-name="no text" xmlns="http://www.w3.org/2000/svg" viewBox="0 0 1200 936.55"><defs><style>.cls-1,.cls-13,.cls-2,.cls-3,.cls-4{fill:none;stroke-linejoin:round;}.cls-1{stroke:#333;stroke-width:3px;}.cls-2,.cls-3,.cls-4{stroke:#e2e2e2;stroke-width:1.07px;}.cls-3{stroke-dasharray:12.03 12.03;}.cls-4{stroke-dasharray:12;}.cls-5{fill:#e76151;}.cls-6{fill:#e78051;}.cls-7{fill:#f4a061;}.cls-8{fill:#f4a261;}.cls-9{fill:#e9c46a;}.cls-10{fill:#398076;}.cls-11{fill:#396e76;}.cls-12{fill:#2a608f;}.cls-13{stroke:#000;stroke-width:0.75px;}</style></defs><line class="cls-1" x1="605.11" y1="108.32" x2="605.11" y2="887.39"/><line class="cls-2" x1="220.17" y1="262.09" x2="220.17" y2="268.09"/><line class="cls-3" x1="220.17" y1="280.12" x2="220.17" y2="875.38"/><line class="cls-2" x1="220.17" y1="881.39" x2="220.17" y2="887.39"/><line class="cls-2" x1="316.41" y1="262.09" x2="316.41" y2="268.09"/><line class="cls-3" x1="316.41" y1="280.12" x2="316.41" y2="875.38"/><line class="cls-2" x1="316.41" y1="881.39" x2="316.41" y2="887.39"/><line class="cls-2" x1="412.64" y1="262.09" x2="412.64" y2="268.09"/><line class="cls-3" x1="412.64" y1="280.12" x2="412.64" y2="875.38"/><line class="cls-2" x1="412.64" y1="881.39" x2="412.64" y2="887.39"/><line class="cls-2" x1="508.88" y1="262.09" x2="508.88" y2="268.09"/><line class="cls-3" x1="508.88" y1="280.12" x2="508.88" y2="875.38"/><line class="cls-2" x1="508.88" y1="881.39" x2="508.88" y2="887.39"/><line class="cls-4" x1="701.35" y1="262.09" x2="701.35" y2="887.39"/><line class="cls-4" x1="797.59" y1="262.09" x2="797.59" y2="887.39"/><line class="cls-4" x1="893.88" y1="262.09" x2="893.88" y2="887.39"/><line class="cls-4" x1="990.11" y1="262.78" x2="990.11" y2="887.39"/><rect class="cls-5" x="605.11" y="825.49" width="352.22" height="52.31"/><rect class="cls-6" x="605.11" y="767.36" width="138.11" height="52.31"/><rect class="cls-7" x="605.11" y="709.23" width="32.55" height="52.31"/><rect class="cls-8" x="605.11" y="651.11" width="12.66" height="52.31"/><rect class="cls-9" x="605.11" y="592.98" width="8.02" height="52.31"/><rect class="cls-9" x="605.11" y="534.85" width="2.26" height="52.31"/><rect class="cls-10" x="596.64" y="476.72" width="8.48" height="52.31"/><rect class="cls-11" x="594.83" y="418.59" width="10.34" height="52.31"/><rect class="cls-12" x="543.91" y="360.46" width="61.2" height="52.31"/><line class="cls-13" x1="70.7" y1="262.78" x2="1129.3" y2="262.78"/><text/></svg>