<svg id="Layer_1" data-name="Layer 1" xmlns="http://www.w3.org/2000/svg" viewBox="0 0 300 1258.17"><defs><style>.cls-1,.cls-13,.cls-14,.cls-3,.cls-4{fill:none;}.cls-1{stroke:#e76151;}.cls-1,.cls-14{stroke-miterlimit:10;}.cls-2{fill:#e76151;}.cls-3,.cls-4{stroke:#bfbfbf;}.cls-13,.cls-3,.cls-4{stroke-linejoin:round;stroke-width:1.07px;}.cls-4{stroke-dasharray:11.89 11.89;}.cls-5{fill:#ceaa61;}.cls-6{fill:#c68254;}.cls-7{fill:#267a6c;}.cls-8{fill:#e9c46a;}.cls-9{fill:#f4a261;}.cls-10{fill:#264653;}.cls-11{fill:#1c373f;}.cls-12{fill:#2a9d8f;}.cls-13{stroke:#878787;}.cls-14{stroke:#bac8ce;stroke-width:0.75px;}.cls-15{fill:#bac8ce;}</style></defs><line class="cls-1" x1="144.27" y1="255.83" x2="253.39" y2="255.83"/><rect class="cls-2" x="252.74" y="251.61" width="1.3" height="8.45"/><line class="cls-1" x1="137.27" y1="494.36" x2="234.96" y2="494.36"/><rect class="cls-2" x="234.31" y="490.14" width="1.3" height="8.45"/><line class="cls-1" x1="174.54" y1="604.81" x2="279.08" y2="604.81"/><rect class="cls-2" x="278.43" y="600.59" width="1.3" height="8.45"/><line class="cls-1" x1="145.39" y1="825.68" x2="282.9" y2="825.68"/><rect class="cls-2" x="282.25" y="821.46" width="1.3" height="8.45"/><line class="cls-1" x1="71.47" y1="1046.57" x2="211.84" y2="1046.57"/><rect class="cls-2" x="211.19" y="1042.34" width="1.3" height="8.45"/><line class="cls-1" x1="116.5" y1="1157" x2="256.86" y2="1157"/><rect class="cls-2" x="256.21" y="1152.77" width="1.3" height="8.45"/><line class="cls-1" x1="181.32" y1="715.25" x2="267.67" y2="715.25"/><rect class="cls-2" x="267.02" y="711.02" width="1.3" height="8.45"/><line class="cls-3" x1="125.25" y1="1193.14" x2="125.25" y2="1187.14"/><line class="cls-4" x1="125.25" y1="1175.24" x2="125.25" y2="86.98"/><line class="cls-3" x1="125.25" y1="81.04" x2="125.25" y2="75.04"/><line class="cls-3" x1="210.48" y1="1193.14" x2="210.48" y2="1187.14"/><line class="cls-4" x1="210.48" y1="1175.24" x2="210.48" y2="86.98"/><line class="cls-3" x1="210.48" y1="81.04" x2="210.48" y2="75.04"/><line class="cls-3" x1="295.72" y1="1193.14" x2="295.72" y2="1187.14"/><line class="cls-4" x1="295.72" y1="1175.24" x2="295.72" y2="86.98"/><line class="cls-3" x1="295.72" y1="81.04" x2="295.72" y2="75.04"/><rect class="cls-5" x="117.43" y="194.85" width="51.62" height="37.86"/><rect class="cls-6" x="169.05" y="194.85" width="84.99" height="37.86"/><rect class="cls-7" x="53.37" y="194.85" width="64.06" height="37.86"/><rect class="cls-8" x="70.42" y="236.9" width="29.57" height="37.86"/><rect class="cls-9" x="100" y="236.9" width="44.27" height="37.86"/><rect class="cls-10" x="39.96" y="236.9" width="5.39" height="37.86"/><rect class="cls-11" x="39.96" y="194.85" width="13.41" height="37.86"/><rect class="cls-12" x="45.36" y="236.9" width="25.06" height="37.86"/><rect class="cls-11" x="39.96" y="433.38" width="9.7" height="37.86"/><rect class="cls-5" x="97.53" y="433.38" width="65.45" height="37.86"/><rect class="cls-6" x="162.96" y="433.38" width="72.86" height="37.86"/><rect class="cls-7" x="49.66" y="433.38" width="47.87" height="37.86"/><rect class="cls-8" x="90.69" y="806.75" width="46.58" height="37.86"/><rect class="cls-9" x="137.27" y="806.75" width="58.67" height="37.86"/><rect class="cls-10" x="39.96" y="806.75" width="8.98" height="37.86"/><rect class="cls-12" x="48.94" y="806.75" width="41.76" height="37.86"/><rect class="cls-5" x="123.6" y="543.82" width="76.24" height="37.86"/><rect class="cls-6" x="199.84" y="543.82" width="80.09" height="37.86"/><rect class="cls-11" x="39.96" y="543.82" width="14.39" height="37.86"/><rect class="cls-7" x="54.35" y="543.82" width="69.25" height="37.86"/><rect class="cls-8" x="73.8" y="585.89" width="47.74" height="37.86"/><rect class="cls-9" x="121.53" y="585.89" width="53.21" height="37.86"/><rect class="cls-10" x="39.96" y="585.89" width="5.84" height="37.86"/><rect class="cls-12" x="45.8" y="585.89" width="28" height="37.86"/><rect class="cls-5" x="153.13" y="654.27" width="42.37" height="37.86"/><rect class="cls-6" x="195.5" y="654.27" width="73.02" height="37.86"/><rect class="cls-11" x="39.96" y="654.27" width="12.17" height="37.86"/><rect class="cls-7" x="52.15" y="654.27" width="100.98" height="37.86"/><rect class="cls-8" x="106.67" y="696.32" width="27.61" height="37.86"/><rect class="cls-9" x="134.28" y="696.32" width="47.24" height="37.86"/><rect class="cls-10" x="39.96" y="696.32" width="6.09" height="37.86"/><rect class="cls-12" x="46.06" y="696.32" width="60.61" height="37.86"/><rect class="cls-5" x="136.07" y="764.7" width="64.43" height="37.86"/><rect class="cls-6" x="200.5" y="764.7" width="83.25" height="37.86"/><rect class="cls-11" x="39.96" y="764.7" width="21.44" height="37.86"/><rect class="cls-7" x="61.4" y="764.7" width="74.67" height="37.86"/><rect class="cls-8" x="68.64" y="475.43" width="35.96" height="37.86"/><rect class="cls-9" x="104.6" y="475.43" width="42.61" height="37.86"/><rect class="cls-10" x="39.96" y="475.43" width="4.27" height="37.86"/><rect class="cls-12" x="44.25" y="475.43" width="24.41" height="37.86"/><line class="cls-1" x1="39.96" y1="936.11" x2="217.8" y2="936.11"/><rect class="cls-2" x="217.15" y="931.89" width="1.3" height="8.45"/><rect class="cls-5" x="102.11" y="875.13" width="55.5" height="37.86"/><rect class="cls-6" x="157.6" y="875.13" width="60.85" height="37.86"/><rect class="cls-11" x="39.96" y="875.13" width="11.21" height="37.86"/><rect class="cls-7" x="51.17" y="875.13" width="50.92" height="37.86"/><rect class="cls-8" x="74.53" y="917.19" width="42.46" height="37.86"/><rect class="cls-9" x="116.99" y="917.19" width="42.42" height="37.86"/><rect class="cls-10" x="39.96" y="917.19" width="7.15" height="37.86"/><rect class="cls-12" x="47.11" y="917.19" width="27.44" height="37.86"/><rect class="cls-5" x="93.19" y="985.57" width="56.31" height="37.86"/><rect class="cls-6" x="149.5" y="985.57" width="63.2" height="37.86"/><rect class="cls-11" x="39.96" y="985.57" width="10.12" height="37.86"/><rect class="cls-7" x="50.08" y="985.57" width="43.1" height="37.86"/><rect class="cls-8" x="75.46" y="1027.64" width="40.43" height="37.86"/><rect class="cls-9" x="115.88" y="1027.64" width="47.48" height="37.86"/><rect class="cls-10" x="39.96" y="1027.64" width="3.95" height="37.86"/><rect class="cls-12" x="43.91" y="1027.64" width="31.56" height="37.86"/><rect class="cls-5" x="109.64" y="1096.02" width="60.63" height="37.86"/><rect class="cls-6" x="170.27" y="1096.02" width="87.24" height="37.86"/><rect class="cls-11" x="39.96" y="1096.02" width="14.02" height="37.86"/><rect class="cls-7" x="53.98" y="1096.02" width="55.66" height="37.86"/><rect class="cls-8" x="84.67" y="1138.07" width="50.64" height="37.86"/><rect class="cls-9" x="135.31" y="1138.07" width="61.11" height="37.86"/><rect class="cls-10" x="39.96" y="1138.07" width="7.29" height="37.86"/><rect class="cls-12" x="47.26" y="1138.07" width="37.42" height="37.86"/><line class="cls-13" x1="40.05" y1="79.15" x2="295.72" y2="79.15"/><line class="cls-13" x1="40.03" y1="79.91" x2="40.03" y2="75.04"/><line class="cls-13" x1="57.08" y1="79.91" x2="57.08" y2="75.04"/><line class="cls-13" x1="74.13" y1="79.91" x2="74.13" y2="75.04"/><line class="cls-13" x1="91.17" y1="79.91" x2="91.17" y2="75.04"/><line class="cls-13" x1="108.22" y1="79.91" x2="108.22" y2="75.04"/><line class="cls-13" x1="142.31" y1="79.91" x2="142.31" y2="75.04"/><line class="cls-13" x1="159.35" y1="79.91" x2="159.35" y2="75.04"/><line class="cls-13" x1="176.4" y1="79.91" x2="176.4" y2="75.04"/><line class="cls-13" x1="193.45" y1="79.91" x2="193.45" y2="75.04"/><line class="cls-13" x1="227.54" y1="79.91" x2="227.54" y2="75.04"/><line class="cls-13" x1="244.58" y1="79.91" x2="244.58" y2="75.04"/><line class="cls-13" x1="261.63" y1="79.91" x2="261.63" y2="75.04"/><line class="cls-13" x1="278.67" y1="79.91" x2="278.67" y2="75.04"/><line class="cls-13" x1="40.04" y1="1193.14" x2="40.04" y2="79.43"/><path class="cls-14" d="M43.36,240.71q30.8-37.31,61.6-74.59"/><path class="cls-15" d="M49.4,239.05a.38.38,0,0,0-.47-.25l-5.46,1.77.71-5.69a.39.39,0,0,0-.33-.42.38.38,0,0,0-.42.33l-.78,6.28a.39.39,0,0,0,.14.33.37.37,0,0,0,.35.07l6-1.95a.43.43,0,0,0,.17-.12A.37.37,0,0,0,49.4,239.05Z"/><path class="cls-14" d="M100.84,160.11c-3.69-.94-17.76-4.05-32,3.61-19.58,10.55-22.7,32.45-23.16,37.3"/><path class="cls-15" d="M42.56,195.6a.36.36,0,0,1,.5.16l2.65,5.09,3.49-4.55a.38.38,0,0,1,.53-.07.39.39,0,0,1,.07.53l-3.86,5a.37.37,0,0,1-.33.15.39.39,0,0,1-.3-.2L42.4,196.1a.29.29,0,0,1,0-.2A.36.36,0,0,1,42.56,195.6Z"/></svg>